<?xml version="1.0" standalone="no"?>
<!DOCTYPE svg PUBLIC "-//W3C//DTD SVG 1.1//EN" "http://www.w3.org/Graphics/SVG/1.1/DTD/svg11.dtd" >
<svg xmlns="http://www.w3.org/2000/svg" xmlns:xlink="http://www.w3.org/1999/xlink" version="1.1">
<metadata></metadata>
<defs>
<font id="chavaregular" horiz-adv-x="1474" >
<font-face units-per-em="2048" ascent="1638" descent="-410" />
<missing-glyph horiz-adv-x="737" />
<glyph horiz-adv-x="0" />
<glyph horiz-adv-x="682" />
<glyph unicode=" "  horiz-adv-x="737" />
<glyph unicode="&#x09;" horiz-adv-x="737" />
<glyph unicode="&#xa0;" horiz-adv-x="737" />
<glyph unicode="!" horiz-adv-x="491" d="M246 0v246h246v-246h-246zM246 492v983h246v-983h-246z" />
<glyph unicode="&#x22;" horiz-adv-x="983" d="M246 983v492h246v-492h-246zM737 983v492h246v-492h-246z" />
<glyph unicode="#" d="M246 246v246h246v245h-246v246h246v246h245v-246h246v246h246v-246h246v-246h-246v-245h246v-246h-246v-246h-246v246h-246v-246h-245v246h-246zM737 492h246v245h-246v-245z" />
<glyph unicode="$" d="M246 737v246h246v-246h-246zM492 0v246h245v246h-245v245h245v246h-245v246h245v246h246v-246h246v-246h-246v-246h246v-245h-246v-246h246v-246h-737zM1229 246v246h246v-246h-246z" />
<glyph unicode="%" d="M246 0v246h246v-246h-246zM246 983v246h246v-246h-246zM492 246v246h245v-246h-245zM737 492v245h246v-245h-246zM983 737v246h246v-246h-246zM1229 0v246h246v-246h-246zM1229 983v246h246v-246h-246z" />
<glyph unicode="&#x26;" d="M246 246v246h246v-246h-246zM246 737v246h246v-246h-246zM492 0v246h491v-246h-491zM492 492v245h491v-245h-491zM492 983v246h491v-246h-491zM983 246v246h246v-246h-246zM1229 0v246h246v-246h-246zM1229 492v245h246v-245h-246z" />
<glyph unicode="'" horiz-adv-x="491" d="M246 983v492h246v-492h-246z" />
<glyph unicode="(" horiz-adv-x="737" d="M246 246v983h246v-983h-246zM492 0v246h245v-246h-245zM492 1229v246h245v-246h-245z" />
<glyph unicode=")" horiz-adv-x="737" d="M246 0v246h246v-246h-246zM246 1229v246h246v-246h-246zM492 246v983h245v-983h-245z" />
<glyph unicode="*" d="M246 492v245h246v-245h-246zM246 983v246h246v-246h-246zM492 737v246h245v492h246v-492h246v-246h-246v-491h-246v491h-245zM1229 492v245h246v-245h-246zM1229 983v246h246v-246h-246z" />
<glyph unicode="+" horiz-adv-x="983" d="M246 492v245h246v246h245v-246h246v-245h-246v-246h-245v246h-246z" />
<glyph unicode="," horiz-adv-x="491" d="M246 246h246v-492h-246v492z" />
<glyph unicode="-" horiz-adv-x="983" d="M246 492v245h737v-245h-737z" />
<glyph unicode="." horiz-adv-x="491" d="M246 0v246h246v-246h-246z" />
<glyph unicode="/" horiz-adv-x="983" d="M246 0v492h246v-492h-246zM492 492v491h245v-491h-245zM737 983v492h246v-492h-246z" />
<glyph unicode="0" d="M246 246v983h246v-983h-246zM492 0v246h737v-246h-737zM492 1229v246h737v-246h-737zM1229 246v983h246v-983h-246z" />
<glyph unicode="1" horiz-adv-x="983" d="M246 0v246h246v737h-246v246h246v246h245v-1229h246v-246h-737z" />
<glyph unicode="2" d="M246 0v492h246v-246h983v-246h-1229zM246 983v246h246v-246h-246zM492 492v245h737v-245h-737zM492 1229v246h737v-246h-737zM1229 737v492h246v-492h-246z" />
<glyph unicode="3" d="M246 246v246h246v-246h-246zM246 983v246h246v-246h-246zM492 0v246h737v-246h-737zM492 1229v246h737v-246h-737zM737 737v246h492v-246h-492zM1229 246v491h246v-491h-246zM1229 983v246h246v-246h-246z" />
<glyph unicode="4" d="M246 246v491h246v-245h491v491h-246v246h246v246h246v-983h246v-246h-246v-246h-246v246h-737zM492 737v246h245v-246h-245z" />
<glyph unicode="5" d="M246 246v246h246v-246h-246zM246 737v738h1229v-246h-983v-246h737v-246h-983zM492 0v246h737v-246h-737zM1229 246v491h246v-491h-246z" />
<glyph unicode="6" d="M246 246v983h246v-246h737v-246h-737v-491h-246zM492 0v246h737v-246h-737zM492 1229v246h737v-246h-737zM1229 246v491h246v-491h-246z" />
<glyph unicode="7" d="M246 1229v246h1229v-492h-246v246h-983zM492 0v492h245v-492h-245zM737 492v245h246v-245h-246zM983 737v246h246v-246h-246z" />
<glyph unicode="8" d="M246 246v491h246v-491h-246zM246 983v246h246v-246h-246zM492 0v246h737v-246h-737zM492 737v246h737l-2 -246h-735zM492 1229v246h737v-246h-737zM1229 246v491h246v-491h-246zM1229 983v246h246v-246h-246z" />
<glyph unicode="9" d="M246 737v492h246v-492h-246zM492 0v246h737v-246h-737zM492 492v245h737v492h246v-983h-246v246h-737zM492 1229v246h737v-246h-737z" />
<glyph unicode=":" horiz-adv-x="491" d="M246 246v246h246v-246h-246zM246 983v246h246v-246h-246z" />
<glyph unicode=";" horiz-adv-x="491" d="M246 0v492h246v-492h-246zM246 983v246h246v-246h-246z" />
<glyph unicode="&#x3c;" horiz-adv-x="983" d="M246 492v245h246v-245h-246zM492 246v246h245v-246h-245zM492 737v246h245v-246h-245zM737 0v246h246v-246h-246zM737 983v246h246v-246h-246z" />
<glyph unicode="=" horiz-adv-x="983" d="M246 246v246h737v-246h-737zM246 737v246h737v-246h-737z" />
<glyph unicode="&#x3e;" horiz-adv-x="983" d="M246 0v246h246v-246h-246zM246 983v246h246v-246h-246zM492 246v246h245v-246h-245zM492 737v246h245v-246h-245zM737 492v245h246v-245h-246z" />
<glyph unicode="?" d="M246 983v246h246v-246h-246zM492 1229v246h737v-246h-737zM737 0v246h246v-246h-246zM737 492v245h492v-245h-492zM1229 737v492h246v-492h-246z" />
<glyph unicode="@" d="M246 246v983h246v-983h-246zM492 0v246h983v-246h-983zM492 1229v246h737v-246h-737zM737 492v491h246v-246h246v492h246v-737h-738z" />
<glyph unicode="A" d="M246 0v1229h246v-737h737v737h246v-1229h-246v246h-737v-246h-246zM492 1229v246h737v-246h-737z" />
<glyph unicode="B" d="M246 0v1475h983v-246h-737v-246h737v-246h-737v-491h737v-246h-983zM1229 246v491h246v-491h-246zM1229 983v246h246v-246h-246z" />
<glyph unicode="C" d="M246 246v983h246v-983h-246zM492 0v246h737v-246h-737zM492 1229v246h737v-246h-737zM1229 246v246h246v-246h-246zM1229 983v246h246v-246h-246z" />
<glyph unicode="D" d="M246 0v1475h983v-246h-737v-983h737v-246h-983zM1229 246v983h246v-983h-246z" />
<glyph unicode="E" d="M246 0v1475h1229v-246h-983v-246h737v-246h-737v-491h983v-246h-1229z" />
<glyph unicode="F" d="M246 0v1475h1229v-246h-983v-246h737v-246h-737v-737h-246z" />
<glyph unicode="G" d="M246 246v983h246v-983h-246zM492 0v246h737v-246h-737zM492 1229v246h737v-246h-737zM737 737v246h738v-737h-246v491h-492z" />
<glyph unicode="H" d="M246 0v1475h246v-492h737v492h246v-1475h-246v737h-737v-737h-246z" />
<glyph unicode="I" horiz-adv-x="491" d="M246 0v1475h246v-1475h-246z" />
<glyph unicode="J" d="M246 246v246h246v-246h-246zM492 0v246h737v-246h-737zM737 1229v246h738v-1229h-246v983h-492z" />
<glyph unicode="K" d="M246 0v1475h246v-492h491v-246h-491v-737h-246zM983 492v245h246v-245h-246zM983 983v246h246v-246h-246zM1229 0v492h246v-492h-246zM1229 1229v246h246v-246h-246z" />
<glyph unicode="L" d="M246 0v1475h246v-1229h983v-246h-1229z" />
<glyph unicode="M" d="M246 0v1475h246v-246h245v-246h-245v-983h-246zM737 737v246h246v-246h-246zM983 983v246h246v246h246v-1475h-246v983h-246z" />
<glyph unicode="N" d="M246 0v1475h246v-246h245v-246h-245v-983h-246zM737 737v246h246v-246h-246zM983 492v245h246v738h246v-1475h-246v492h-246z" />
<glyph unicode="O" d="M246 246v983h246v-983h-246zM492 0v246h737v-246h-737zM492 1229v246h737v-246h-737zM1229 246v983h246v-983h-246z" />
<glyph unicode="P" d="M246 0v1475h983v-246h-737v-737h737v-246h-737v-246h-246zM1229 492v737h246v-737h-246z" />
<glyph unicode="Q" d="M246 246v983h246v-983h-246zM492 0v246h491v-246h-491zM492 1229v246h737v-246h-737zM983 246v246h246v-246h-246zM1229 0v246h246v-246h-246zM1229 492v737h246v-737h-246z" />
<glyph unicode="R" d="M246 0v1475h983v-246h-737v-737h737v-246h-737v-246h-246zM1229 0v246h246v-246h-246zM1229 492v737h246v-737h-246z" />
<glyph unicode="S" d="M246 246v246h246v-246h-246zM246 983v246h246v-246h-246zM492 0v246h737v-246h-737zM492 737v246h737v-246h-737zM492 1229v246h737v-246h-737zM1229 246v491h246v-491h-246z" />
<glyph unicode="T" d="M246 1229v246h1229v-246h-492v-1229h-246v1229h-491z" />
<glyph unicode="U" d="M246 246v1229h246v-1229h-246zM492 0v246h737v-246h-737zM1229 246v1229h246v-1229h-246z" />
<glyph unicode="V" d="M246 492v983h246v-983h-246zM492 246v246h245v-246h-245zM737 0v246h246v-246h-246zM983 246v246h246v-246h-246zM1229 492v983h246v-983h-246z" />
<glyph unicode="W" d="M246 246v1229h246v-1229h-246zM492 0v246h245v-246h-245zM737 246v491h246v-491h-246zM983 0v246h246v-246h-246zM1229 246v1229h246v-1229h-246z" />
<glyph unicode="X" d="M246 0v492h246v-492h-246zM246 1229v246h246v-246h-246zM492 492v245h245v-245h-245zM492 983v246h245v-246h-245zM737 737v246h246v-246h-246zM983 492v245h246v-245h-246zM983 983v246h246v-246h-246zM1229 0v492h246v-492h-246zM1229 1229v246h246v-246h-246z" />
<glyph unicode="Y" d="M246 737v738h246v-738h-246zM492 492v245h245v-245h-245zM737 0v492h246v-492h-246zM983 492v245h246v-245h-246zM1229 737v738h246v-738h-246z" />
<glyph unicode="Z" d="M246 0v492h246v-246h983v-246h-1229zM246 1229v246h1229v-246h-246v-246h-246v246h-737zM492 492v245h245v-245h-245zM737 737v246h246v-246h-246z" />
<glyph unicode="[" horiz-adv-x="737" d="M246 0v1475h491v-246h-245v-983h245v-246h-491z" />
<glyph unicode="\" horiz-adv-x="983" d="M246 983v492h246v-492h-246zM492 492v491h245v-491h-245zM737 0v492h246v-492h-246z" />
<glyph unicode="]" horiz-adv-x="737" d="M246 0v246h246v983h-246v246h491v-1475h-491z" />
<glyph unicode="^" d="M246 614v246h246v-246h-246zM492 860v246h245v-246h-245zM737 1106v246h246v-246h-246zM983 860v246h246v-246h-246zM1229 614v246h246v-246h-246z" />
<glyph unicode="_" d="M246 0v246h1229v-246h-1229z" />
<glyph unicode="a" d="M246 0v1229h246v-737h737v737h246v-1229h-246v246h-737v-246h-246zM492 1229v246h737v-246h-737z" />
<glyph unicode="b" d="M246 0v1475h983v-246h-737v-246h737v-246h-737v-491h737v-246h-983zM1229 246v491h246v-491h-246zM1229 983v246h246v-246h-246z" />
<glyph unicode="c" d="M246 246v983h246v-983h-246zM492 0v246h737v-246h-737zM492 1229v246h737v-246h-737zM1229 246v246h246v-246h-246zM1229 983v246h246v-246h-246z" />
<glyph unicode="d" d="M246 0v1475h983v-246h-737v-983h737v-246h-983zM1229 246v983h246v-983h-246z" />
<glyph unicode="e" d="M246 0v1475h1229v-246h-983v-246h737v-246h-737v-491h983v-246h-1229z" />
<glyph unicode="f" d="M246 0v1475h1229v-246h-983v-246h737v-246h-737v-737h-246z" />
<glyph unicode="g" d="M246 246v983h246v-983h-246zM492 0v246h737v-246h-737zM492 1229v246h737v-246h-737zM737 737v246h738v-737h-246v491h-492z" />
<glyph unicode="h" d="M246 0v1475h246v-492h737v492h246v-1475h-246v737h-737v-737h-246z" />
<glyph unicode="i" horiz-adv-x="491" d="M246 0v1475h246v-1475h-246z" />
<glyph unicode="j" d="M246 246v246h246v-246h-246zM492 0v246h737v-246h-737zM737 1229v246h738v-1229h-246v983h-492z" />
<glyph unicode="k" d="M246 0v1475h246v-492h491v-246h-491v-737h-246zM983 492v245h246v-245h-246zM983 983v246h246v-246h-246zM1229 0v492h246v-492h-246zM1229 1229v246h246v-246h-246z" />
<glyph unicode="l" d="M246 0v1475h246v-1229h983v-246h-1229z" />
<glyph unicode="m" d="M246 0v1475h246v-246h245v-246h-245v-983h-246zM737 737v246h246v-246h-246zM983 983v246h246v246h246v-1475h-246v983h-246z" />
<glyph unicode="n" d="M246 0v1475h246v-246h245v-246h-245v-983h-246zM737 737v246h246v-246h-246zM983 492v245h246v738h246v-1475h-246v492h-246z" />
<glyph unicode="o" d="M246 246v983h246v-983h-246zM492 0v246h737v-246h-737zM492 1229v246h737v-246h-737zM1229 246v983h246v-983h-246z" />
<glyph unicode="p" d="M246 0v1475h983v-246h-737v-737h737v-246h-737v-246h-246zM1229 492v737h246v-737h-246z" />
<glyph unicode="q" d="M246 246v983h246v-983h-246zM492 0v246h491v-246h-491zM492 1229v246h737v-246h-737zM983 246v246h246v-246h-246zM1229 0v246h246v-246h-246zM1229 492v737h246v-737h-246z" />
<glyph unicode="r" d="M246 0v1475h983v-246h-737v-737h737v-246h-737v-246h-246zM1229 0v246h246v-246h-246zM1229 492v737h246v-737h-246z" />
<glyph unicode="s" d="M246 246v246h246v-246h-246zM246 983v246h246v-246h-246zM492 0v246h737v-246h-737zM492 737v246h737v-246h-737zM492 1229v246h737v-246h-737zM1229 246v491h246v-491h-246z" />
<glyph unicode="t" d="M246 1229v246h1229v-246h-492v-1229h-246v1229h-491z" />
<glyph unicode="u" d="M246 246v1229h246v-1229h-246zM492 0v246h737v-246h-737zM1229 246v1229h246v-1229h-246z" />
<glyph unicode="v" d="M246 492v983h246v-983h-246zM492 246v246h245v-246h-245zM737 0v246h246v-246h-246zM983 246v246h246v-246h-246zM1229 492v983h246v-983h-246z" />
<glyph unicode="w" d="M246 246v1229h246v-1229h-246zM492 0v246h245v-246h-245zM737 246v491h246v-491h-246zM983 0v246h246v-246h-246zM1229 246v1229h246v-1229h-246z" />
<glyph unicode="x" d="M246 0v492h246v-492h-246zM246 1229v246h246v-246h-246zM492 492v245h245v-245h-245zM492 983v246h245v-246h-245zM737 737v246h246v-246h-246zM983 492v245h246v-245h-246zM983 983v246h246v-246h-246zM1229 0v492h246v-492h-246zM1229 1229v246h246v-246h-246z" />
<glyph unicode="y" d="M246 737v738h246v-738h-246zM492 492v245h245v-245h-245zM737 0v492h246v-492h-246zM983 492v245h246v-245h-246zM1229 737v738h246v-738h-246z" />
<glyph unicode="z" d="M246 0v492h246v-246h983v-246h-1229zM246 1229v246h1229v-246h-246v-246h-246v246h-737zM492 492v245h245v-245h-245zM737 737v246h246v-246h-246z" />
<glyph unicode="{" horiz-adv-x="737" d="M246 246v246h246v-246h-246zM246 983v246h246v-246h-246zM492 0v246h245v-246h-245zM492 492v491h245v-491h-245zM492 1229v246h245v-246h-245z" />
<glyph unicode="|" horiz-adv-x="491" d="M246 -246v1966h246v-1966h-246z" />
<glyph unicode="}" horiz-adv-x="737" d="M246 0v246h246v-246h-246zM246 492v491h246v-491h-246zM246 1229v246h246v-246h-246zM492 246v246h245v-246h-245zM492 983v246h245v-246h-245z" />
<glyph unicode="~" horiz-adv-x="1228" d="M246 492h246v245h-246v-245zM492 737h245v246h-245v-246zM737 492h246v245h-246v-245zM983 737h246v246h-246v-246z" />
<glyph unicode="&#xa1;" horiz-adv-x="491" d="M246 0v983h246v-983h-246zM246 1229v246h246v-246h-246z" />
<glyph unicode="&#xa2;" horiz-adv-x="1228" d="M246 492v491h246v-491h-246zM492 246v246h737v-246h-246v-246h-246v246h-245zM492 983v246h245v246h246v-246h246v-246h-737z" />
<glyph unicode="&#xa3;" d="M246 0v246h246v983h245v-492h246v-245h-246v-246h738v-246h-1229zM737 1229v246h246v-246h-246zM983 983v246h246v-246h-246z" />
<glyph unicode="&#xa4;" horiz-adv-x="1476" d="M246 0v246h246v-246h-246zM246 983v246h246v-246h-246zM492 246v737h737v-737h-737zM737 492h246v245h-246v-245zM1231 0v246h246v-246h-246zM1231 983v246h246v-246h-246z" />
<glyph unicode="&#xa5;" d="M246 983v492h246v-492h-246zM492 246v246h245v245h246v-245h246v-246h-246v-246h-246v246h-245zM492 737v246h245v-246h-245zM983 737v246h246v-246h-246zM1229 983v492h246v-492h-246z" />
<glyph unicode="&#xa6;" horiz-adv-x="491" d="M246 -246v738h246v-738h-246zM246 983v737h246v-737h-246z" />
<glyph unicode="&#xab;" horiz-adv-x="1720" d="M246 492v245h246v-245h-246zM492 246v246h245v-246h-245zM492 737v246h245v-246h-245zM737 0v246h246v-246h-246zM737 983v246h246v-246h-246zM983 492v245h246v-245h-246zM1229 246v246h246v-246h-246zM1229 737v246h246v-246h-246zM1475 0v246h245v-246h-245zM1475 983 v246h245v-246h-245z" />
<glyph unicode="&#xad;" horiz-adv-x="983" d="M246 492v245h737v-245h-737z" />
<glyph unicode="&#xb0;" horiz-adv-x="1228" d="M72 860v246h245v-246h-245zM317 614v246h246v-246h-246zM317 1106v246h246v-246h-246zM563 860v246h246v-246h-246z" />
<glyph unicode="&#xb1;" horiz-adv-x="983" d="M246 0v246h737v-246h-737zM246 737v246h246v246h245v-246h246v-246h-246v-245h-245v245h-246z" />
<glyph unicode="&#xb6;" horiz-adv-x="1224" d="M246 737v738h487v-1475h-246v737h-241zM979 0v1475h246v-1475h-246z" />
<glyph unicode="&#xbb;" horiz-adv-x="1720" d="M246 0v246h246v-246h-246zM246 983v246h246v-246h-246zM492 246v246h245v-246h-245zM492 737v246h245v-246h-245zM737 492v245h246v-245h-246zM983 0v246h246v-246h-246zM983 983v246h246v-246h-246zM1229 246v246h246v-246h-246zM1229 737v246h246v-246h-246zM1475 492 v245h245v-245h-245z" />
<glyph unicode="&#xbf;" d="M246 246v491h246v-491h-246zM492 0v246h737v-246h-737zM492 737v246h491v-246h-491zM737 1229v246h246v-246h-246zM1229 246v246h246v-246h-246z" />
<glyph unicode="&#xd7;" horiz-adv-x="1228" d="M246 246v246h246v-246h-246zM246 737v246h246v-246h245v246h246v-246h-246v-245h-245v245h-246zM737 246v246h246v-246h-246z" />
<glyph unicode="&#xf7;" horiz-adv-x="491" d="M246 246v246h246v-246h-246zM246 737v246h246v-246h-246z" />
<glyph unicode="&#x2000;" horiz-adv-x="860" />
<glyph unicode="&#x2001;" horiz-adv-x="1720" />
<glyph unicode="&#x2002;" horiz-adv-x="860" />
<glyph unicode="&#x2003;" horiz-adv-x="1720" />
<glyph unicode="&#x2004;" horiz-adv-x="573" />
<glyph unicode="&#x2005;" horiz-adv-x="430" />
<glyph unicode="&#x2006;" horiz-adv-x="286" />
<glyph unicode="&#x2007;" horiz-adv-x="286" />
<glyph unicode="&#x2008;" horiz-adv-x="215" />
<glyph unicode="&#x2009;" horiz-adv-x="344" />
<glyph unicode="&#x200a;" horiz-adv-x="95" />
<glyph unicode="&#x2010;" horiz-adv-x="983" d="M246 492v245h737v-245h-737z" />
<glyph unicode="&#x2011;" horiz-adv-x="983" d="M246 492v245h737v-245h-737z" />
<glyph unicode="&#x2012;" horiz-adv-x="983" d="M246 492v245h737v-245h-737z" />
<glyph unicode="&#x2013;" horiz-adv-x="1228" d="M246 492v245h983v-245h-983z" />
<glyph unicode="&#x2014;" d="M246 492v245h1229v-245h-1229z" />
<glyph unicode="&#x2018;" horiz-adv-x="491" d="M246 983v492h246v-492h-246z" />
<glyph unicode="&#x2019;" horiz-adv-x="491" d="M246 983v492h246v-492h-246z" />
<glyph unicode="&#x201a;" horiz-adv-x="1228" d="M246 246h246v-492h-246v492z" />
<glyph unicode="&#x201c;" horiz-adv-x="983" d="M246 983v492h246v-492h-246zM737 983v492h246v-492h-246z" />
<glyph unicode="&#x201d;" horiz-adv-x="983" d="M246 983v492h246v-492h-246zM737 983v492h246v-492h-246z" />
<glyph unicode="&#x201e;" horiz-adv-x="1228" d="M246 -246v492h246v-492h-246z" />
<glyph unicode="&#x2022;" horiz-adv-x="737" d="M246 492v491h491v-491h-491z" />
<glyph unicode="&#x202f;" horiz-adv-x="344" />
<glyph unicode="&#x2039;" horiz-adv-x="983" d="M246 492v245h246v-245h-246zM492 246v246h245v-246h-245zM492 737v246h245v-246h-245zM737 0v246h246v-246h-246zM737 983v246h246v-246h-246z" />
<glyph unicode="&#x203a;" horiz-adv-x="983" d="M246 0v246h246v-246h-246zM246 983v246h246v-246h-246zM492 246v246h245v-246h-245zM492 737v246h245v-246h-245zM737 492v245h246v-245h-246z" />
<glyph unicode="&#x205f;" horiz-adv-x="430" />
<glyph unicode="&#x20ac;" d="M246 492v245h246v246h245v-246h246v-245h-246v-246h-245v246h-246zM737 0v246h492v-246h-492zM737 983v246h492v-246h-492zM1229 246v246h246v-246h-246zM1229 737v246h246v-246h-246z" />
<glyph unicode="&#x25fc;" d="M0 0v1475h1475v-1475h-1475z" />
</font>
</defs>
</svg>
